<?xml version="1.0" encoding="UTF-8"?>
<svg viewBox="0 0 724.81897 480" xmlns="http://www.w3.org/2000/svg">
 <defs>
  <filter id="a" x="-.03218" y="-.44277" width="1.0644" height="1.8855">
   <feGaussianBlur stdDeviation="9.1094"/>
  </filter>
 </defs>
 <g transform="translate(-65.45 -121.06)">
  <path d="m97.5 124.47c4.5 0 9-1.9195 13.5-1.9195s9 1.9195 13.5 1.9195v59.385c0 40.792 2 80.854 2 118.77v118.77c0 40.792-2 80.854-2 118.77v59.385h-27v-59.385c0-40.792 2-80.854 2-118.77v-118.77c0-40.792-2-80.854-2-118.77v-59.385z" fill="#241f1c" fill-rule="evenodd" stroke="#241f1c" stroke-width="3"/>
  <path d="m758.5 124.47c-4.5 0-9-1.9195-13.5-1.9195s-9 1.9195-13.5 1.9195v59.385c0 40.792-2 80.854-2 118.77v118.77c0 40.792 2 80.854 2 118.77v59.385h27v-59.385c0-40.792-2-80.854-2-118.77v-118.77c0-40.792 2-80.854 2-118.77v-59.385z" fill="#241f1c" fill-rule="evenodd" stroke="#241f1c" stroke-width="3"/>
  <path d="m93.5 124.47c4.5 0 9-1.9195 13.5-1.9195s9 1.9195 13.5 1.9195v59.385c0 40.792 2 80.854 2 118.77v118.77c0 40.792-2 80.854-2 118.77v59.385h-27v-59.385c0-40.792 2-80.854 2-118.77v-118.77c0-40.792-2-80.854-2-118.77v-59.385z" fill="#806600" fill-rule="evenodd" stroke="#806600" stroke-width="3"/>
  <path d="m762.5 124.47c-4.5 0-9-1.9195-13.5-1.9195s-9 1.9195-13.5 1.9195v59.385c0 40.792-2 80.854-2 118.77v118.77c0 40.792 2 80.854 2 118.77v59.385h27v-59.385c0-40.792-2-80.854-2-118.77v-118.77c0-40.792 2-80.854 2-118.77v-59.385z" fill="#806600" fill-rule="evenodd" stroke="#806600" stroke-width="3"/>
  <path d="m748.75 122.56c-0.43731 0-0.87519 0.0272-1.3125 0.06-4e-3 6.5084 5e-3 13.017 0 19.525-0.088-6.7899-0.13309-12.82-0.1875-19.495-1.1772 0.0993-2.354 0.27504-3.5312 0.50987 0.0766 13.882 0.11894 27.745 0.1875 41.63 0.0537 25.219-0.0142 50.427-0.125 75.641-0.0866 16.201-0.16525 32.414-0.21875 48.618 0.0904 17.191 0.18615 34.391 0.21875 51.587 0.0198 20.078-0.0312 40.177-0.0312 60.255 0.0909 23.559 0.12747 47.109 0.28125 70.662 0.1169 27.38 0.29708 54.792 0.125 82.179-0.0321 5.1098-0.10275 10.22-0.15625 15.326-0.16997 10.209-0.49976 20.34-0.75 30.502h3.7812c0.0245-10.876 0.0127-21.763-0.0312-32.632-0.1532-18.635-0.10075-37.236-0.0937-55.876-0.0188-3.3191-0.0234-6.672-0.0625-9.9875-0.0483-4.1239-0.1195-8.2387-0.1875-12.357-0.23567-14.303-0.38557-22.211-0.5625-37.071-0.0224-1.8904-0.0437-2.8597-0.0625-4.4989 0.0942-20.587 0.14445-41.195 0.21875-61.784 2e-3 -20.059-0.021-40.106 0-60.165 0.0339-18.031 0.0949-36.079 0.1875-54.106-0.0455-14.261-0.0969-28.513-0.1875-42.769 0.0159-1.8714 0.0154-3.7372 0.0312-5.6086 0.0152-1.5897 0.048-3.1791 0.0625-4.7688 0.056 8.7208 0.0783 12.04 0.21875 21.475 0.11711 7.8649 0.32857 15.737 0.4375 23.604 0.13156 9.4972 0.11676 18.989 0.21875 28.493-9e-3 6.8979-0.0394 13.828-0.0625 20.725-0.095 30.446-0.0578 21.185-0.0312 18.475 9e-3 1.7499 6e-3 6.8838 0 18.925-0.0127 23.333-0.15277 46.684 0.125 70.002 0.15183 15.754 0.35345 31.528 0.5625 47.268 0 44.221-0.0292 88.439-0.0312 132.66h0.0937v-127.14c0.33577 24.869 0.69453 49.714 1 74.591 0.0699 9.3051 0.18985 18.613 0.21875 27.923 0.0252 8.2072-0.0141 16.412-0.0312 24.624h0.0937c3e-3 -17.954-0.0172-35.915-0.0625-53.866-0.021-8.9608-0.0271-17.913-0.0625-26.873-0.19193-48.888-0.10388-2.0401-0.21875-48.858-0.0484-19.908-0.0466-39.806-0.0625-59.715 0.0673-23.178-0.1441-46.351-0.1875-69.523-0.0303-16.136-0.04-22.382-0.0312-23.724 9e-3 2.3162 0.0525 9.7198-0.0312-13.257-0.0318-7.6814-0.0535-15.352-0.0625-23.034 0.10691-14.28 0.29245-28.574 0.34375-42.859 0.0416-11.618-0.0763-23.189-0.1875-34.791 0.0224-6.5494 0.0422-13.096 0.0625-19.645 0.0781-20.28 0.13428-40.577 0.15625-60.855h-0.0625zm3.8125 0.3899c0.10809 37.162 0.2646 74.319 0.375 111.48 0.27856 44.909-0.168 89.82-0.1875 134.73-3e-3 7.7826 0.019 15.582 0.0312 23.364 0.0318 50.195 0.18185 100.37 0.21875 150.56 0.0465 18.823 0.10132 37.651 0.125 56.476h0.1875c0.0237-19.664 0.045-39.333 0.0937-58.995 0.0404-51.042 0.1875-102.07 0.1875-153.11 4e-3 -7.8869 0.0443-15.777 0.0312-23.664-0.0738-43.277-0.659-86.52-0.625-129.81-0.10995-37.013-0.23597-74.013-0.34375-111.03-0.0302-5e-3 -0.0635 5e-3 -0.0937 0zm3.2812 0.62984c-0.10541 19.123-0.22322 38.25-0.3125 57.376-0.34518 84.51-0.41885 169-0.46875 253.53-0.37676 24.992-0.27923 50.08-0.40625 75.101-0.0367 7.2193-0.1304 14.408-0.1875 21.625-0.23871 30.311-0.0352 9.1492-0.34375 38.63-0.0449 9.9006-0.0924 19.821-0.15625 29.723h0.9375c0.23039-12.815 0.42374-25.668 0.625-38.48 0.0434-6.161 0.14255-12.312 0.15625-18.475 0.0258-11.67-0.11285-26.867-0.15625-38.45-0.0869-23.38-0.0726-46.772-0.40625-70.122 0.0498-84.522 0.12349-169.05 0.46875-253.56 0.12041-25.786 0.22704-41.056 0.3125-56.866-0.0221-5e-3 -0.0404-0.0253-0.0625-0.03zm-14.875 0.14997-0.0937 0.0299c2e-3 69.604 0.0147 139.21-0.0625 208.81-0.12738 78.902-0.34277 157.78-1.1562 236.61-0.0938 10.123-0.2124 20.259-0.3125 30.382h0.0937c0.0992-10.274 0.18599-20.557 0.28125-30.832 0.81341-78.83 1.0289-157.74 1.1562-236.64 0.0771-69.452 0.0936-138.91 0.0937-208.36zm-1.5312 0.29992-0.0937 0.0299c-0.0289 32.384-0.0548 64.758-0.0625 97.146-7e-3 15.948 0.0506 31.921 0 47.868-0.0535 16.829-0.21073 33.653-0.3125 50.477-0.83321 93.308-1.3642 186.64-1.7188 280.01h0.0937c0.35618-93.522 0.88434-187.03 1.7188-280.49 0.10164-16.825 0.22775-33.648 0.28125-50.477 0.0511-15.947 0.0243-31.89 0.0312-47.838 8e-3 -32.237 0.0339-64.483 0.0625-96.726zm19.094 0.0899c0.33399 36.466 0.52512 72.937 0.5 109.44 0.27147 48.077 0.7186 96.189 0.6875 144.29 0.0373 11.693 0.0478 11.915 0.0625 17.246 9e-3 -0.88621 0.0304-0.15574 0.0625 3.4791-0.0123 2.4687-0.0182 4.9394-0.0312 7.4081-2e-3 -0.61738-0.0287-3.73-0.0312-4.6788 7e-3 5.6251 0.0363 12.495 0.0312 10.257-0.0138 11.167-0.0393 37.665-0.0312 43.879 0.0448 33.852 0.26576 67.67 0.0625 101.52 0.0103 14.198 0.0209 28.392 0.0312 42.589h0.53125c0.0125-15.467 0.0194-30.93 0.0312-46.398-0.20011-34.115 0.0169-68.222 0.0625-102.33 9.5e-4 -0.72742 1.2e-4 -3.7156 0-4.9488-0.1423-8.2395-0.25-16.415-0.25-24.474v-118.77c0-13.33 0.21243-26.585 0.5-39.71-1e-3 -0.0823 1e-3 -0.1882 0-0.26993-0.0535-4.2747-0.0771-8.555-0.0937-12.837 9e-3 -2.2895 0.0222-4.6088 0.0312-6.8983 0.1179-24.193 0.1023-48.387 0.0625-72.582 0.18648 21.446 0.37932 46.385 0.5625 69.852 0.0197-0.78278 0.0429-1.5578 0.0625-2.3394-0.20927-27.03-0.4545-57.137-0.65625-78.52-9e-3 -5.361-0.0243-10.715-0.0312-16.076 0.0303-6.2922 0.0782-12.576 0.125-18.865-0.76009-0.0617-1.5212-0.14053-2.2812-0.26993zm-21.25 0.23994c-0.67652 0.0738-1.3547 0.11997-2.0312 0.11997v59.385c0 8.898-0.10119 17.76-0.25 26.573-6e-3 8.6867-0.0245 17.373-0.0312 26.063-0.0371 19.783-0.0939 39.572-0.125 59.355 9e-3 18.599 0.11175 37.218 0.0312 55.816 0.0109 17.777-0.0806 35.549-0.0625 53.327 0.0428 17.695 0.053 35.399 0.1875 53.087 0.2722 29.257 0.5223 58.527 0.4375 87.818-9e-3 17.886-0.0404 35.774-0.0937 53.656h1.6875c-0.0649-20.875-0.14599-41.739-0.15625-62.624-0.0763-31.162 0.20921-62.294 0.46875-93.426 0.13123-18.445 0.11285-36.914 0.15625-55.366 0.0182-17.495-0.0726-34.992-0.0625-52.487-0.0795-18.729 0.0222-37.476 0.0312-56.206-0.0314-19.326-0.0569-38.649-0.0937-57.975-0.0173-22.047-0.0198-44.086-0.0625-66.133-0.0198-10.328-0.0349-20.655-0.0312-30.982zm22.625 103.68c0.0504 6.293 0.10055 12.603 0.15625 18.895 6e-3 10.144 0 20.268 0 30.412-0.0555-16.438-0.0992-32.869-0.15625-49.308zm-26.125 35.121c-0.0184 0.80181-0.0134 1.599-0.0312 2.3994 0.0773 10.37 0.11213 19.094 0.21875 41.63 0.1228 49.511 0.0652 28.454 0.0312 27.083-0.0167 0.86675-0.0393 7.8417-0.0312 31.342 3e-3 9.7557 0.0857 19.547 0.0937 29.303 0.0215 25.835-0.034 51.663-0.0625 77.5 0.0198 0.81013 0.0425 1.6204 0.0625 2.4294 0.0104-26.807 0.0222-53.604 0.0625-80.41 0.0147-10.057 0.0625-20.116 0.0625-30.172-7e-3 -19.176-0.19095-38.348-0.15625-57.526-0.11301-23.858-0.16273-32.358-0.25-43.579zm27.531 218.76c-0.0748 27.729-0.21019 55.437-0.1875 83.169-5e-3 11.488-0.06 22.973-0.0937 34.461h1.2188v-59.385c0-19.638-0.45674-39.103-0.9375-58.245z" fill="#c8ab37"/>
  <path d="m107.69 122.57c7e-3 2.0502 0.0245 4.0976 0.0312 6.1484-0.8801 34.634-2.2118 69.049-3.375 103.5-1.379 43.842-0.7578 24.319-1.75 57.166-3e-3 -16.503-1e-4 -33.014 0-49.518 0.19967-38.951 0.16318-77.922 0.21875-116.88-0.18688 0.0342-0.37562 0.0536-0.5625 0.0899 0.0608 39.081 0.04 78.166 0.25 117.24 0 17.394 0.01 34.793 0 52.187-0.039 1.2849-0.0195 0.43429-0.0625 1.8595-0.2998 9.8933-0.64765 19.745-0.90625 29.663-0.616 23.629-0.9398 47.417-1.3125 71.142-0.043 6.161-0.14225 12.342-0.15625 18.505-0.0258 11.67 0.1445 26.837 0.1875 38.42 0.0869 23.38 0.0413 46.772 0.375 70.122-0.0152 25.769-0.035 51.549-0.0625 77.321h0.0625c0.0286-25.924 0.0784-51.846 0.0937-77.77 0.3768-24.992 0.248-50.05 0.375-75.071 0.0367-7.2193 0.1305-14.408 0.1875-21.625 0.2387-30.311 0.0352-9.1792 0.34375-38.66 0.1323-29.151 0.2711-58.324 0.875-87.368-0.0176 38.887-0.0603 77.786-0.15625 116.67-0.0404 51.042-0.1875 102.07-0.1875 153.11-3e-3 7.8869-0.0443 15.747-0.0312 23.634 4e-3 2.3598 0.0244 4.7186 0.0312 7.0782h0.8125c8e-3 -4.1488 0.0294-8.2982 0.0312-12.447 3e-3 -7.7826-0.0192-15.552-0.0312-23.334-0.0317-50.195-0.18175-100.4-0.21875-150.59-0.0978-39.506-0.14125-78.992-0.15625-118.5 0.01-0.47892 0.0202-0.96082 0.0312-1.4396 0.4738-20.579 1.1684-41.008 1.8125-61.485 1.1888-33.287 2.3281-66.632 3.3125-100.05 0.023 7.2028 0.0142 14.422 0.0312 21.625-0.3231 19.842-0.384 31.17-0.625 53.956-0.47 67.734-0.6709 135.52-0.5 203.29 0.021 8.9608 0.0275 17.943 0.0625 26.903 0.1916 48.888 0.10385 2.0401 0.21875 48.858 0.049 19.908 0.0777 39.806 0.0937 59.715-0.0518 17.838 0.0198 35.672 0.0937 53.507h1.5c0.0316-20.977 0.12471-41.963-0.125-62.924-0.1518-15.754-0.32215-31.498-0.53125-47.238v-190.15c3e-3 -52.121-0.014-104.26 0.0937-156.38 0.1159-6.7502 0.26498-13.478 0.40625-20.215-0.0317-3e-3 -0.062-0.0275-0.0937-0.0299-0.10702 4.9597-0.21791 9.9145-0.3125 14.876 0.0114-4.9626 0.0483-9.9154 0.0625-14.876l-0.4375-0.03zm0.875 0.06c0.0234 2.0993 0.0435 4.1944 0.0625 6.2984 0.133 14.587 0.2355 29.194 0.3125 43.789 0.1221 22.376 0.1027 44.753-0.0625 67.123-0.154 16.517-0.1185 33.053-0.0625 49.578 0.043 18.46 0.13875 36.886-0.0312 55.336-0.083 14.842-0.06 29.724 0 44.569 0.153 18.635 0.0725 37.266 0.0625 55.906 0.019 3.3191 0.0235 6.642 0.0625 9.9575 0.0483 4.1239 0.15075 8.2387 0.21875 12.357 0.2356 14.303 0.35425 22.241 0.53125 37.101 0.023 1.8904 0.0435 2.8597 0.0625 4.4989-0.0942 20.587-0.14475 41.195-0.21875 61.784 0 9.5393-5e-3 19.077 0 28.613h2.5c1e-3 -14.716 0-29.438 0-44.149-0.0909-23.559-0.12745-47.109-0.28125-70.662-0.1166-27.38-0.2971-54.822-0.125-82.209 0.0321-5.1098 0.10225-10.22 0.15625-15.326 0.2265-13.598 0.75355-27.039 0.96875-40.64 0.1455-9.1738 0.11825-10.59 0.15625-20.095 0-4.0678 0.0422-8.1394 0.0312-12.207-0.025-9.5532-0.16625-21.064-0.15625-30.532 0.0184-17.08 0.33275-34.08 0.59375-51.107 0.0835-4.924 0.158-9.8354 0.25-14.756 0.2943-15.706 0.2181-9.0072 0.4375-23.574 0.1332-8.8402 0.2387-17.673 0.375-26.513 0.0773-8.8595 0.115-17.734 0.125-26.603h-0.0312c4e-3 -5.8395 7e-3 -11.674 0-17.516-0.82184-0.17313-1.6469-0.34594-2.4688-0.50987-7e-3 2.2811-0.0232 4.5592-0.0312 6.8383-0.0727 18.308-0.1582 36.6-0.375 54.886-0.096 19.566-0.0487 39.128-0.0937 58.695-0.02 3.3308-0.0405 6.6568-0.0625 9.9875 0.0119-9.8385-5e-3 -19.649-0.0937-29.483-0.1631-21.992-0.125-44.013-0.125-66.013-0.013-4.636-0.0487-17.478-0.0937-22.164-0.0415-4.3163-0.0746-8.6229-0.15625-12.927-0.81292-0.14464-1.6246-0.25893-2.4375-0.32992zm8.5938 1.5296c-0.23568 17.283-0.82539 34.532-0.75 51.887 0.0212 4.8295 0.10525 9.6616 0.15625 14.486 0.0881 6.6508 0.17 13.292 0.25 19.945 0.104 8.6522 0.2675 17.311 0.3125 25.973 0.1404 26.678-0.067 40.665-0.3125 68.083-0.2477 27.668-0.52475 55.323-0.78125 82.989-0.72868 70.62-0.95946 141.33-1.0938 212.02h0.0937c0.1351-70.842 0.36333-141.69 1.0938-212.47 0.3708-40.01 0.8064-80.03 1.0625-120.06 0.0676-10.65 0.0557-21.297 0.15625-31.942 0.1715-18.144 0.5803-37.051 0.9375-55.186 0.013-0.52979 0.0192-1.0595 0.0312-1.5896 0 1.7579-0.01 3.5208 0 5.2787 0.028 20.28 0.0247 40.545 0.0937 60.825 0.0123 22.273 0.1135 44.554 0.1875 66.823-0.30566 96.132-0.78277 192.24-1.5625 288.32h0.0625c0.74932-92.399 1.2232-184.83 1.5312-277.28 0.0709 32.364 0.234 64.718 0.25 97.086 0.0764 31.162-0.178 62.294-0.4375 93.426-0.1313 18.445-0.1445 36.914-0.1875 55.366-0.0108 10.467 8e-3 20.936 0.0312 31.402h2.2188v-59.385c0-9.4693 0.12532-19.078 0.3125-28.793-4e-5 -0.01 4e-5 -0.0199 0-0.03-0.0196-4.378-0.0292-8.7598-0.0625-13.137-0.2722-29.257-0.5225-58.557-0.4375-87.848 0.0165-34.333 0.184-68.635 0.25-102.96 0.0752-25.878 0.1715-51.739 0.1875-77.62 0.019-5.794 0.0204-11.6 0.0312-17.396-0.168-9.4548-0.28125-18.97-0.28125-28.523v-59.385c-1.1148 0-2.229-0.1227-3.3438-0.29992zm-21.469 0.14996c-0.13583 0.0157-0.27042 0.0467-0.40625 0.06 0.10169 21.494 0.0859 42.984 0.125 64.484 0.137 75.406-0.0292-20.248 0.0937 56.296-0.0404 15.227-0.0382 30.451-0.0625 45.678 0.0337 3.922 0.0625 7.8502 0.0625 11.787v118.77c0 5.4152-0.0551 10.877-0.125 16.376-0.0108 22.563-0.0946 45.134-0.125 67.693-0.01 7.186 0.0212 41.845 0.0312 48.888 0.0843 15.067 0.1238 30.125 0.125 45.199h0.65625c-0.0141-7.0371-0.0358-14.077-0.0312-21.115-0.0373-11.683-0.0482-11.915-0.0625-17.246-9e-3 0.88621-0.0305 0.15575-0.0625-3.4791 0.012-2.4687 0.0182-4.9394 0.0312-7.4081 2e-3 0.61851 0.0287 3.7292 0.0312 4.6788-7e-3 -5.6251-0.0363-12.525-0.0312-10.287 0.014-11.167 0.0412-37.635 0.0312-43.849-0.045-33.852-0.26581-67.7-0.0625-101.55-0.0375-51.752-0.0444-103.49-0.21875-155.24 5e-3 -6.654 0.0312-50.29 0.0312-57.166 0-20.851-0.0335-41.711-0.0312-62.564zm-1 0.0899c-0.38538 0.0264-0.77087 0.0592-1.1562 0.06-0.0268 3.1971-0.0148 2.3158-0.0312 4.1989v55.186c0 24.706 0.8458 50.315 1.4375 76.451 6e-3 -13.09 0.0128-26.174 0.0312-39.26 0.0525-22.301-0.20725-44.593-0.28125-66.883-0.0351-10.443-0.029-19.902 0-29.753zm13.125 34.821c0.064 31.434 0.0937 62.861 0.0937 94.296 0 15.387-0.0312 30.771-0.0312 46.158v184.18c-0.3358-24.869-0.6945-49.744-1-74.621-0.0698-9.305-0.18975-18.583-0.21875-27.893-0.032-10.377 0.0192-20.755 0.0312-31.132 0.0567-47.801 0.13795-95.621 0.53125-143.39 0.168-15.868 0.35995-31.733 0.59375-47.598zm13.688 85.628c-0.13158 9.3101-0.24419 19.046-0.3125 27.983-0.0889 11.467-0.047 14.836 0 26.333 0.021 5.3381 0.0435 10.648 0.0625 15.986-5e-3 18.771-0.0445 21.106 0.0625 40.28 0.09 16.111 0.31 32.174 0.375 48.288 0.032 8.8246 0.01 51.833 0 59.835-2e-3 3.6983 2e-3 7.3988 0 11.097 0.0299-1.2087 0.0644-2.418 0.0937-3.6291 2e-3 -2.6496-2e-3 -5.2985 0-7.948 7e-3 -11.491 0.0205-48.181 0.0625-60.165 0.0316-9.0792 0.11625-18.125 0.15625-27.203 0.037-8.2922 0.0115-16.603 0.0625-24.894 0.0379-6.179 0.1904-20.492 0.3125-31.942 0.017 6.1454 0.0213 12.269 0.0312 18.415 0.019 28.79 0.0568 57.583 0.0937 86.378 1e-3 -0.76078 0-1.5181 0-2.2794v-118.77c0-18.786-0.50459-38.099-1-57.765zm-27.062 237.9c-0.47316 18.872-0.9375 38.054-0.9375 57.406v59.385h1.4062c-0.37027-23.006-0.625-46.058-0.625-69.133 0-13.676 0.096-27.324 0.125-41 3e-3 -2.2193 0.0266-4.4391 0.0312-6.6583z" fill="#c8ab37"/>
  <path d="m88.175 264.37h679.38l-60 49.377h-559.38z" fill-rule="evenodd" filter="url(#a)" opacity=".2" stroke="#000" stroke-width=".623"/>
  <path d="m88.175 384.37h679.38l-60 49.377h-559.38z" fill-rule="evenodd" filter="url(#a)" opacity=".2" stroke="#000" stroke-width=".623"/>
  <path d="m88.175 504.37h679.38l-60 49.377h-559.38z" fill-rule="evenodd" filter="url(#a)" opacity=".2" stroke="#000" stroke-width=".623"/>
  <path d="m96.11 262.88h663.51a5.9641 3.4138 0 0 1 5.9641 3.4138v4.5517a5.9641 3.4138 0 0 1 -5.9641 3.4138h-663.51a5.9641 3.4138 0 0 1 -5.9641 -3.4138v-4.5517a5.9641 3.4138 0 0 1 5.9641 -3.4138" fill="#540" fill-rule="evenodd"/>
  <path d="m96.11 382.88h663.51a5.9641 3.4138 0 0 1 5.9641 3.4138v4.5517a5.9641 3.4138 0 0 1 -5.9641 3.4138h-663.51a5.9641 3.4138 0 0 1 -5.9641 -3.4138v-4.5517a5.9641 3.4138 0 0 1 5.9641 -3.4138" fill="#540" fill-rule="evenodd"/>
  <path d="m96.11 502.88h663.51a5.9641 3.4138 0 0 1 5.9641 3.4138v4.5517a5.9641 3.4138 0 0 1 -5.9641 3.4138h-663.51a5.9641 3.4138 0 0 1 -5.9641 -3.4138v-4.5517a5.9641 3.4138 0 0 1 5.9641 -3.4138" fill="#540" fill-rule="evenodd"/>
  <path d="m94.114 261.06h667.5a6 3.4138 0 0 1 6 3.4138v4.5517a6 3.4138 0 0 1 -6 3.4138h-667.5a6 3.4138 0 0 1 -6 -3.4138v-4.5517a6 3.4138 0 0 1 6 -3.4138" fill="#806600" fill-rule="evenodd"/>
  <path d="m94.114 381.06h667.5a6 3.4138 0 0 1 6 3.4138v4.5517a6 3.4138 0 0 1 -6 3.4138h-667.5a6 3.4138 0 0 1 -6 -3.4138v-4.5517a6 3.4138 0 0 1 6 -3.4138" fill="#806600" fill-rule="evenodd"/>
  <path d="m94.114 501.06h667.5a6 3.4138 0 0 1 6 3.4138v4.5517a6 3.4138 0 0 1 -6 3.4138h-667.5a6 3.4138 0 0 1 -6 -3.4138v-4.5517a6 3.4138 0 0 1 6 -3.4138" fill="#806600" fill-rule="evenodd"/>
  <path d="m765.09 381.07 0.13513 0.0303h-87.095c-24.016 0.0272-48.031 0.10329-72.027 0.18208l2.4324-0.0303c17.157-0.056 34.323-0.11762 51.486-0.15174h-39.324l2.6014-0.0303h54.324c12.003-0.0137 23.97-0.0153 35.98 0h51.486zm-675.13 0.15173 10.743 0.0607 36.149 0.0151 95.405-0.0303c0.51362 6e-3 1.0413 9e-3 1.554 0.0151-32.154 0.0133-64.305 0.0386-96.453 0.0455-6.9232 2e-3 -13.855 9e-3 -20.777 0.0151l35.98 0.10622c9.3387 0.0184 18.7 0.0168 28.041 0.0303 10.226 0.0148 20.449 0.0492 30.676 0.0607 8.995 0.0102 28.06 0.0122 45.135 0.0151l3.0068 0.0303c-17.962-4e-3 -40.264-9e-3 -47.23 0-18.15 0.0237-36.278 0.10381-54.426 0.13656-21.598 0.039-24.228 0.0325-45.372 0.0303l-18.007 0.0151c-2.5517 3e-3 -3.8652 0.0118-5.8446 0.0151 0.35266-0.2115 0.84578-0.40205 1.4189-0.56142zm506.22 0.18208c44.033 0.039 88.098 0.0575 132.13 0.0607h38.142l0.1013 0.0303h-37.736c-44.797-3e-3 -89.626-0.0195-134.43-0.0607l1.7905-0.0303zm-28.041 0.51589c25.155 6e-3 50.285-1.1e-4 75.439 0.0151 26.772 0.0166 53.6 3e-3 80.372 0.0151l43.513 0.0151c0.26743 0.2139 0.40541 0.45567 0.40541 0.69798v0.0759c-9.4039 2e-3 -18.806 0.0108-28.209 0.0151-26.691 0.0121-53.376-2e-3 -80.068 0.0151-24.834 0.0155-49.659 9e-3 -74.493 0.0151-21.769 0.0134-43.535 0.0341-65.304 0.0455-14.726-2e-3 -29.46-0.0137-44.189-0.0151 27.71-0.16424 55.64-0.51688 83.142-0.89523h9.3919zm-479.86 0.0607 15.372 0.0151c38.669 0.0242 77.341 0.085 116.01 0.091 24.734 0.0231 49.441-0.024 74.155-0.091 41.537 0.46462 82.029 0.81936 125.37 0.81936l3.7162 0.0151c-8.5122 6e-3 -17.027 0.018-25.541 0.0151-20.784-0.0158-41.588-0.0129-62.365-0.0607-35.068-0.0945-70.135-0.1947-105.24-0.16691-36.46 6e-3 -72.903 0.05-109.36 0.0759 118.1 0.12723 236.2 0.34207 354.22 0.6828 18.951 0.037 37.902 0.0867 56.858 0.10622 17.962 0.0184 35.955-2e-3 53.919 0 60.832 5e-3 121.64 0.0253 182.47 0.0607v0.0303c-60.651-0.0351-121.31-0.056-181.96-0.0607-17.964-2e-3 -35.923 0.0185-53.885 0-18.957-0.0195-37.907-0.0692-56.858-0.10621-122.35-0.35315-244.76-0.57212-367.2-0.69798l-20.101 0.0303v-0.0759c0-0.23777 0.14744-0.47225 0.40541-0.6828zm-0.40541 1.3201c35.192 0.0938 70.36 0.21322 105.54 0.31864 88.795 0.29624 177.68 0.37847 266.55 0.42486 102.42 0.0368 204.87 0.0316 307.3 0.0303h0.60811v0.0151h-0.1013c-102.43 0-204.84 6e-3 -307.26-0.0303-88.876-0.0464-177.79-0.11347-266.59-0.40968-31.163-0.0934-62.315-0.19808-93.48-0.2883l-12.568-0.0303v-0.0303zm23.514 1.487c4.5817-4e-3 9.1679 0.0151 13.75 0.0151 10.707 0.0139 12.335-7e-3 22.669 0.0455 15.32 0.0784 30.426 0.28171 45.743 0.36416l17.297 0.0455c30.85 0.0627 61.726-3e-3 92.568-0.0455 26.53-0.056 53.057-0.0579 79.595-0.091 22.616 0 45.255 7e-3 67.872 0 19.37-0.0118 38.744-0.0429 58.108-0.0759 18.252 0.0195 36.481 0.0443 54.73 0.0759 28.401 0.0403 56.796 0.0651 85.203 0.0455 17.679-0.0282 35.364-0.0401 53.041-0.0759 19.311-0.0391 38.647-0.0989 57.973-0.0607l7.9392 0.0303v0.50072c-14.407 0.0204-28.778 0.0642-43.176 0.10621l43.176-0.0151v0.75867c-17.419-7e-3 -34.85-0.0241-52.264-0.0607h-4.223l-5.473 0.0151c-12.515 0.0333-20.685 0.0459-31.453 0.091l73.615 0.0151c6.6054-5e-3 13.196 1e-3 19.797-0.0151v0.5159l-10.27-0.0151c-43.212-5e-3 -86.42-7e-3 -129.63-0.0607l-22.128-0.0151c-13.069 0.0405-26.136 0.0758-39.223 0.0607-16.091-0.0187-32.158-0.0825-48.243-0.12139-8.6531 3e-3 -17.327 0.0187-25.98 0.0303-74.247 0.0875 31.08-0.0289-41.622 0.0151-26.101 0.0158-52.203 0.0852-78.311 0.0607-22.425 6e-3 -44.839 0.0127-67.263 0.0303-52.736 0.0419 0.0351 6e-3 -55.034 0.0759l-30.27 0.0303c-44.001 0.0359-88.024 0.0147-132.03-0.0303v-0.0151c21.334 0.0173 42.683 0.0222 64.02 0.0303 11.689 5e-3 23.379 0.0267 35.068 0.0151 10.486-0.0105 20.971-0.0504 31.453-0.0759 28.022-0.11124 56.007-0.24188 84.02-0.36416h-214.56v-0.0303h220.78c17.73-0.0761 35.498-0.15713 53.243-0.21243 26.266-0.10115 52.569-0.035 78.851-0.0303 19.55 3e-3 22.745-9e-3 21.824-0.0151h0.0676c-2.7884-5e-3 -5.8791-0.0111 20.236 0.0151 7.7691 8e-3 15.575 0.027 23.345 0.0303 10.706-0.0371 21.397-0.0279 32.095-0.0759 8.8618-0.0396 17.695-0.12426 26.554-0.1669 10.627-0.0512 14.4-0.0555 24.223-0.0759l-5.3716-0.0151-6.3176-0.0151c-16.058 0.033-32.112 0.0442-48.176 0.0607-20.306-0.0337-40.635-0.0635-60.946-0.0759-22.594-8e-3 -45.176 1e-3 -67.77 0-23.192-0.027-46.405-0.0416-69.595-0.0759l-5.0676 0.0303c-16.739 0.0644-25.645 0.11143-41.757 0.19725-4.6388 0.0247-9.3075 0.0583-13.953 0.0759l-11.216 0.0151c-20.996-2e-3 -41.982-0.0254-62.973 0.0303-16.721 0.0218-33.451 0.029-50.169 0-19.297-0.0575-38.6-0.0314-57.905-0.0151v-1.4415c7.9767-0.0121 16.163-0.0393 23.514-0.0455zm656.49 3.4899c-2.7e-4 0.0104 8e-4 0.02 0 0.0303-65.628 0.0443-131.27 0.10389-196.89 0.16691-48.759-0.0124-97.469 0.20073-146.22 0.2276-8.8836 5e-3 -17.738 2e-3 -26.622 0-57.494 0-114.97-0.0612-172.47-0.0759-43.8-0.0351-87.616-0.0391-131.42-0.0455 32.715 0.21991 65.576 0.27046 98.412 0.31864 33.208 0.11235 9.4042 0.0345 43.547 0.12139 8.1289 0.0208 16.226 0.0473 24.358 0.0607 28.184 0.0463 56.41 0.0145 84.561 0.15173 95.207 0.0182 190.41 0.0413 285.61 0.16691 45.077 0.068 90.141 0.1558 135.2 0.25795l-0.13513 0.0303-24.899-0.0607c-49.534-0.10658-59.862-0.12212-109.63-0.19726-95.193-0.12573-190.44-0.14878-285.64-0.1669-26.302 0.12151-52.651 0.10492-78.986 0.13656-13.047 0.0158-30.132 0.0701-43.277 0.0607-6.9429-5e-3 -13.905-0.0296-20.845-0.0455-26.724-0.13571-53.519-0.26123-80.135-0.48555-11.171-0.0942-22.268-0.22465-33.412-0.33382-0.7766-8e-3 -0.87397 1e-3 -1.0135 0-0.0143-0.0247-0.0227-0.0509-0.0338-0.0759 0.46163 3e-3 0.92436 0.0118 1.3851 0.0151 44.502-6e-3 89.014-0.01 133.51-0.0455 56.541-0.0134 113.05-0.0643 169.59-0.0759 8.7662-5e-3 17.517-0.0162 26.284-0.0151 50.582 7e-3 101.17 0.16214 151.76 0.0607 65.793-0.0632 131.6-0.13782 197.4-0.18209zm-4.8986 1.8815c-0.54429 0.0431-1.0981 0.0759-1.6892 0.0759h-5.0338c2.2064-0.0251 4.5604-0.046 6.723-0.0759zm-127.5 0.47038c-21.657 0.21838-42.699 0.44279-63.615 0.66762-3.6487-4e-3 -7.2974-9e-3 -10.946-0.0151-2.5788-3e-3 -5.1576-0.0117-7.7365-0.0151-4.823 6e-3 -9.6444 0.026-14.459 0.0455-12.034 0.0488-29.967 0.22342-42.23 0.31865l-11.824 0.091 46.216-0.13656 17.872-0.0455c-1.342 0.0138-2.7138 0.0319-4.054 0.0455l-13.277 0.0303c-19.148 0.0533-38.32 0.11023-57.466 0.16692-3.5946 0.0166-7.7076 0.0283-14.865 0.0607l-15.304 0.0303c-33.572 0.10012-67.165 0.19759-100.74 0.2883l-2.5-0.0151c30.287-0.0814 60.598-0.18295 90.878-0.27312h-18.784c-8.6377 2e-3 -17.241 0.0102-25.878 0.0151-20.137 0.0134-40.249 0.0666-60.372 0.10621-11.921-0.14376-23.756-0.31358-35.507-0.48555l17.804 0.0151c15.404 0.0105 30.811 0.0455 46.216 0.0455 30.968 0 61.881-0.12334 92.736-0.30346 7.8224-0.0336 14.449-0.0653 21.182-0.091-28.993-0.0227-58.002-0.0222-86.993 0.0303-7.9324 3e-3 -46.973 0.0187-55.068 0.0151-19.212-8e-3 -38.419-0.0325-57.635-0.0455h-0.20271l-12.331-0.18208c21.652-0.0109 43.309-0.0362 64.966-0.0455l49.426 0.0151 11.554-0.0151-5.2703 0.0151 8.3446 0.0151c7.0218-0.02 3.8022-0.0311-1.0811-0.0303 5.6586-5e-3 7.8644 2e-3 24.426-0.0151 54.186 0.0113 108.35-0.15909 162.5-0.25795 21.338 5e-3 42.696-0.013 64.02-0.0455zm-57.77 0.36416-55.541 0.0607h34.257l21.284-0.0607zm-209.19 1.2594c16.561 0.0171 33.107 0.0491 49.662 0.091-21.454 0.16537-43.656 0.10043-65.98-0.091 5.4343-1e-3 10.884-6e-3 16.318 0z" fill="#c8ab37" fill-rule="evenodd"/>
  <path d="m761.28 272.44c3.2347 0 5.9185-0.72928 6.4865-1.7149-7.1696 0.12315-13.575 0.2375-22.061 0.30369-5.1187 0.0399-10.27 0.0338-15.405 0.0535l-16.993 0.0715c-47.259 0.18765-94.541 0.28036-141.86 0.26796-1.7684 4e-3 -3.5356 0.0139-5.304 0.0178 29.738 0.11325 60.607 0.3238 102.97 0.71455h4.0878c25.656 0.0471 51.302 0.12923 76.892 0.28583h11.182zm-666.82 0c27.353 0 55.916-0.0492 85.101-0.12505-24.236-0.0174-48.467-0.0432-72.703-0.0715l-15.236-0.0178c0.86331 0.13307 1.8131 0.21437 2.8378 0.21437zm117.03-0.39301c19.214-0.0428 38.419-0.051 57.635-0.0357h1.4189c20.076-0.0822 40.177-0.17642 60.203-0.26796h-9.1892c-38.131 0.0193-76.224 0.12288-114.36 0.0357-39.136 0.0108-78.297 0.0104-117.43 0.0357l0.64189 0.17864 121.08 0.0535zm556.38-1.7864v-0.0178c-45.704-0.12284-91.41-0.22246-137.13-0.30369-95.193-0.14799-190.4-0.19299-285.61-0.21437-28.151-0.16153-56.377-0.12416-84.561-0.17864l-24.358-0.0715c-34.143-0.10235-10.34-0.0106-43.547-0.14291-32.836-0.0567-65.697-0.11625-98.412-0.37514 43.803 8e-3 87.619 0.0301 131.42 0.0714 57.494 0.0174 114.97 0.0715 172.47 0.0715 8.8839 2e-3 17.738 0.0236 26.622 0.0179 48.747-0.0316 97.457-0.28254 146.22-0.26796 65.618-0.0742 131.26-0.16218 196.89-0.21437v-0.0178c-65.794 0.0521-131.61 0.12211-197.4 0.1965-50.586 0.11943-101.17-0.063-151.76-0.0714-8.7664-1e-3 -17.518 0.0127-26.284 0.0179-56.541 0.0136-113.05 0.0735-169.59 0.0893-44.5 0.0418-89.011 0.0649-133.51 0.0715-0.48324-4e-3 -0.96882-0.0137-1.4527-0.0179v0.0536c0.15156 1e-3 0.26018 8e-3 1.1149 0.0178 11.144 0.12851 22.241 0.28213 33.412 0.393 26.616 0.2641 53.411 0.41188 80.135 0.57165 6.9397 0.0187 13.902 0.0477 20.845 0.0536 13.145 0.011 30.23-0.0528 43.277-0.0714 26.336-0.0373 52.685-0.0177 78.986-0.16078 95.207 0.0213 190.45 0.0485 285.64 0.1965 49.767 0.0885 60.095 0.10676 109.63 0.23224l26.959 0.0715zm-605.24-3.0547c19.085 2e-4 38.181-0.0174 57.263-0.0357 10.094-9e-3 20.178-3e-3 30.27-0.0178 55.069-0.0823 2.298-0.058 55.034-0.10718 22.424-0.0208 44.838-0.0111 67.263-0.0178 26.107 0.0288 52.21-0.0707 78.311-0.0893 18.175-0.013 25.212-4e-3 26.723 0-2.598 4e-3 -10.964 0.018 14.899-0.0179l25.98-0.0179c16.085 0.0458 32.153 0.1209 48.243 0.14291 13.087 0.0179 26.154-0.0416 39.223-0.0893 7.3773 0.01 14.752 0.027 22.128 0.0357 43.208 0.0634 86.416 0.0653 129.63 0.0715 4.2505 5e-3 6.9433-5e-3 10.27 0v-0.60737c-6.6012 0.0191-13.192 0.0118-19.797 0.0179-24.537-3e-3 -49.078-0.0104-73.615-0.0179 10.768-0.0531 18.938-0.0679 31.453-0.10718l5.473-0.0179c1.4086 2e-3 2.8144 0.015 4.223 0.0179 17.413 0.043 34.844 0.0629 52.264 0.0715v-0.91106c-14.401 6e-3 -28.783 1e-3 -43.176 0.0178 14.398-0.0494 28.769-0.10104 43.176-0.12505v-0.58951l-7.9392-0.0178c-19.326-0.0449-38.661 8e-3 -57.973 0.0535l-53.041 0.10719c-28.407 0.023-56.802-0.024-85.203-0.0715-18.249-0.0371-36.477-0.0663-54.73-0.0893-19.365 0.0387-38.739 0.0754-58.108 0.0893-22.616 9e-3 -45.256 0-67.872 0-26.537 0.039-53.065 0.0412-79.595 0.10719-30.842 0.0501-61.718 0.14523-92.568 0.0715-5.7557-0.0137-11.546-0.0485-17.297-0.0715-15.317-0.0971-30.423-0.31861-45.743-0.41088-10.333-0.0622-11.962-0.055-22.669-0.0715-4.582 0-9.1683-5e-3 -13.75 0l-23.514 0.0357v1.7149c19.306-0.0192 38.609-0.0498 57.905 0.0179 16.718 0.0341 33.448 0.0257 50.169 0 20.991-0.0657 41.977-0.0386 62.973-0.0357l11.216-0.0357c4.6452-0.0207 9.3139-0.0602 13.953-0.0893 16.111-0.10104 25.018-0.15637 41.757-0.23223l5.0676-0.0179c23.189 0.0403 46.403 0.0575 69.595 0.0893 22.594 1e-3 45.176-9e-3 67.77 0 20.311 0.0145 40.64 0.0318 60.946 0.0715 16.063-0.0195 32.117-0.0326 48.176-0.0715l6.3176 0.0178 5.3716 0.0178c-9.8232 0.024-13.596 0.0291-24.223 0.0893-8.8591 0.0502-17.692 0.14979-26.554 0.1965-10.698 0.0564-21.389 0.0456-32.095 0.0893-7.7699-4e-3 -15.575-8e-3 -23.345-0.0178-26.246-0.0312-23.169-0.0414-20.338-0.0357 0.72457 7e-3 -2.6379 0.0218-21.791 0.0179-26.282-6e-3 -52.585-0.0655-78.851 0.0535-17.745 0.0651-35.514 0.14261-53.243 0.23224h-220.78v0.0357h214.56c-28.013 0.14396-55.999 0.29776-84.02 0.42873-10.481 0.0299-20.966 0.0769-31.453 0.0893-11.688 0.0136-23.378-0.0127-35.068-0.0178l-64.02-0.0357v0.0357c24.919 0.03 49.842 0.0533 74.763 0.0535zm604.97-3.5192-0.0337-0.0357h-0.30405c-102.42 2e-3 -204.87 8e-3 -307.3-0.0357-88.876-0.0546-177.76-0.15142-266.55-0.50019-34.505-0.12173-68.997-0.24762-103.51-0.35728l-0.1013 0.0179 10.642 0.0357 93.48 0.33941c88.795 0.34874 177.71 0.4456 266.59 0.50019 102.37 0.0433 204.73 0.0357 307.09 0.0357zm-0.94595-0.62524c-0.0228-0.0103-0.0442-0.0255-0.0676-0.0357-60.402-0.0409-120.78-0.048-181.18-0.0535-17.964-3e-3 -35.957 0.0217-53.919 0-18.956-0.023-37.907-0.0993-56.858-0.14291-95.599-0.32492-191.24-0.54512-286.89-0.6967-1.8335 7e-3 -3.6739 0.0298-5.5068 0.0357 97.672 0.15276 195.32 0.36499 292.94 0.69669 18.951 0.0436 37.902 0.10207 56.858 0.12505 17.962 0.0218 35.921 0.015 53.885 0.0179 60.247 6e-3 120.5 0.013 180.74 0.0535zm-369.29-0.85747c19.707 8e-3 39.415-0.0225 59.122-0.0178 21.096-0.0341 42.213-4e-3 63.311 0l65.304-0.0357 74.493-0.0357c6.6559-5e-3 13.311 5.7e-4 19.966 0-48.92-0.14707-84.351-0.64476-121.89-1.0004-18.794-0.014-37.592-0.0424-56.385-0.0535-20.95 4e-3 -41.889 0.0523-62.838 0.0179-13.943 3e-3 -27.885-9e-3 -41.824-0.0179-55.903 0.15401-111.09 0.58145-165.91 0.87533 34.785-0.0299 69.538 0.0862 104.29 0.19651 20.777 0.0563 41.58 0.0528 62.365 0.0714z" fill="#c8ab37"/>
  <path d="m746.34 501.07c-2.1904 3e-3 -4.2269 0.01-6.3514 0.0147-6.4786 0.11399-13.165 0.23992-14.02 0.25124-4.0841 0.0541-8.1592 0.0848-12.264 0.11822l-9.0203 0.0147-10.27-0.0443-6.0473-0.0296c-18.462 0.18227-34.079 0.4215-48.412 0.67979h2.9054c8.349 0.0167 10.761 0.0462 19.088 0.0147 8.36-0.0313 17.937-0.11372 26.182-0.16257l17.027-0.0887 0.54055-0.0147c4.3461 7e-3 8.6938 0.011 13.041 0.0147 13.581-3e-3 27.164 0.0544 40.743 0.0739l7.2973 0.0147c-0.49257-0.21633-1.1448-0.40443-1.8919-0.54679-8.7093 0.0152-17.44 0.0296-26.149 0.0443l23.345-0.33989c-0.27126-0.01-0.53012-0.0147-0.81081-0.0147-5.1469 0-10.121-8e-3 -14.932 0zm-655.47 0.31034-0.23649 0.0443h68.345l-4.1892-0.0296-55.845-0.0147h-8.0743zm-0.77703 0.16256-0.1013 0.0295c16.428 0.0937 32.856 0.1905 49.291 0.22167 10.034 0.0189 20.099-2e-3 30.135 0l44.628 0.0147-3.6149-0.0296h-40.709c-10.036-2e-3 -20.067 4e-3 -30.101-0.0147-16.514-0.0313-33.023-0.12728-49.527-0.22167zm648.21 0.65023c-15.017 0.01-30.017 0.0203-45.034 0.0443-18.795 6e-3 -37.593 0.0472-56.385 0.0739l-10.676 0.0147c-10.809 0.20867-21.33 0.41572-32.061 0.60591 10.643 0.0159 21.279 0.0477 31.926 0.0591l-38.919 0.0739-1.6216 0.0295 48.547-0.0887c16.171 0.0262 32.373 0.0547 48.547 0.0591 14.726 0.0246 29.428 0.0196 44.155 0.0295h3.8513l-1.1486 0.0147c-13.169 0.12668-26.926 0.27909-40.101 0.33989-7.7302 0.0357-15.475 0.0203-23.209 0.0443-29.069 0.0908-58.107 0.2527-87.162 0.38423-57.245 0.28852-114.53 0.36861-171.82 0.41379-66.031 0.0358-132.11 0.0308-198.14 0.0296h-53.885c-7.2276 0-14.464 0.018-21.689 0-13.84-0.0344-27.678-0.18055-41.486-0.28078l-0.77703-0.0147c38.321-0.0951 76.636-0.15043 114.97-0.19211 39.935-0.036 79.861-0.0397 119.8-0.0443 11.581-2e-3 23.15 3e-3 34.73-0.0147 12.221-0.019 24.438-0.0674 36.655-0.10345 18.403-0.0802 36.83-0.15579 55.236-0.22167l-2.0608-0.0147h-0.27027c-17.517 0.0631-35.02 0.13051-52.534 0.2069-12.217 0.0361-24.435 0.0992-36.655 0.11822-11.58 0.018-23.182-2e-3 -34.764 0-39.936 5e-3 -79.862 8e-3 -119.8 0.0443-39.231 0.0427-78.481 0.10789-117.7 0.2069h-0.94595v0.57635c15.076-0.0969 30.176-0.21711 45.27-0.25123 7.226-0.0164 14.462 0.0147 21.689 0.0147h53.919c66.032 0 132.04 6e-3 198.07-0.0296 57.298-0.0452 114.61-0.12529 171.86-0.41379l60.27-0.28078c19.911-0.087 30.086-0.15322 49.459-0.10345 6.2907 0.0162 12.568 0.0666 18.851 0.10345l14.493 0.0887c3.5037 0.0182 6.9996 0.0516 10.507 0.0591 11.914 0.0254 23.747-0.16056 35.608-0.25123v-0.54679c0-0.27496-0.18333-0.53264-0.54054-0.76846-9.6669-0.0133-19.347-0.0257-29.02-0.0147zm-501.32 0.0591c-18.669 0.0128-37.311 5e-3 -55.98 0.0295-20.726 0.0262-41.468 0.0211-62.196 0.0295h-10.845c-16.85-0.0138-2.2576-0.0443-18.716-0.0443h-0.91216c-0.30501 0.2206-0.47297 0.45637-0.47297 0.70935v0.0295c1.3065-9e-3 2.3417-7e-3 11.52-0.0147h10.608c20.586 8e-3 41.206-0.0116 61.791 0.0147 18.361 0.0251 36.706 0.0313 55.068 0.0443 17.207 0.0118 34.414-0.0162 51.622 0 16.01 0.0151 32.03 0.0234 48.041 0.0295l42.095 0.0296c13.601-3e-3 27.21-0.0282 40.811 0h3.8851c-15.507-0.0323-72.609-0.42566-134.29-0.85713-14.01 4e-3 -28.021-9e-3 -42.027 0zm520.61 2.202c-6.4407 2e-3 -12.891 2e-3 -19.324 0.0295-6.4195 0.0484-12.837 0.0858-19.257 0.133-10.578 0.0778-5.6893 0.0582-17.095 0.16256l-10.743 0.0887c-12.365 0.0926-24.691 0.20038-37.095 0.2069-6.8758 4e-3 -15.259-0.0354-22.196-0.0443h-8.8514c-6.9024 0.0136-7.9327 8e-3 -14.595 0.0591-9.8768 0.0763-19.652 0.2596-29.527 0.3399-3.7079 0.019-7.4042 0.0477-11.115 0.0591-19.888 0.061-39.813-0.0176-59.696-0.0591-17.104-0.0546-34.209-0.0564-51.318-0.0887-14.58 0-29.17 7e-3 -43.75 0-12.487-0.0115-24.982-0.0418-37.466-0.0739-11.767 0.019-23.539 0.0432-35.304 0.0739-18.31 0.0393-36.619 0.0781-54.932 0.0591-11.397-0.0275-22.76-0.0538-34.155-0.0887-12.45-0.0381-24.94-0.0815-37.399-0.0443-4.5655 0.0225-9.1129 0.0499-13.682 0.0591-4.6994 0.01-9.388-8e-3 -14.088-0.0147-15.87-0.0216-31.735-0.0781-47.601-0.11823-16.852-0.0209-33.692-0.0411-50.541 0v1.5222l2.0608-0.0147c11.935-0.0241 23.843-0.0442 35.777-0.0739 11.128-0.0108 22.25-0.029 33.378-0.0295l5.3041 0.10344c8.3822 0.15273 15.798 0.30319 24.291 0.38423 10.946 0.10445 15.588 0.0735 26.622 0.0591 27.858-5e-3 55.692-7e-3 83.547-0.0591l14.291-0.0295c8.4256 0.0394 16.833 0.0886 25.27 0.0739 10.373-0.0182 20.745-0.0803 31.115-0.11823 5.5785 3e-3 11.145 3e-3 16.723 0.0147l9.6284 0.0147c0.97423-3e-3 5.5123-0.0108 17.23 0 16.827 0.0154 33.642 0.0977 50.473 0.0739 14.457 6e-3 28.922-2e-3 43.378 0.0147 33.998 0.0407-0.0292 0.0206 35.473 0.0887 6.5065 0.0126 13.02 7e-3 19.527 0.0147 49.21 0.0606 98.448 4e-3 147.64-0.16256 16.547-0.0855 24.78-0.12185 39.189-0.23645 5.2307 6e-3 10.445 7e-3 15.676 0.0147-24.271 0.34915-48.463 0.76061-72.635 1.1823-14.87 0.22846-29.718 0.46739-44.662 0.63546l-1.0473 0.0147c-28.69-5e-3 -57.359-0.0245-86.047-0.0591-36.451-0.0131-72.907-0.0626-109.36-0.0739-5.6515-4e-3 -11.308-0.0158-16.959-0.0147-32.61 7e-3 -65.226 0.15791-97.838 0.0591-55.063-0.0799-110.1-0.18072-165.17-0.20689-27.618-0.0402-55.256-0.0898-82.872-0.17734v0.0296h0.23649c27.427 0.0826 54.862 0.1374 82.297 0.17734 55.069 0.0262 110.14 0.127 165.2 0.2069 31.434-0.0121 62.83 0.1955 94.257 0.22167 5.7272 5e-3 11.435-0.0133 17.162-0.0147 37.066 0 74.151-0.0448 111.22-0.0591 28.237-0.0342 56.457-0.0529 84.696-0.0591-21.091 0.21416-42.277 0.26341-63.446 0.31034-21.409 0.10941-6.0627 0.0336-28.074 0.11822-5.2406 0.0203-10.467 0.0461-15.709 0.0591-18.17 0.0451-36.345 0.0142-54.493 0.14779-61.379 0.0177-122.79 0.0549-184.16 0.17734-34.951 0.0797-69.894 0.1632-104.83 0.29556l-6.4527-0.133c-16.7-0.33553-33.711-0.31905-50.608-0.39901l-10.068-0.0591c-12.25-0.0868-24.493-0.0671-36.757-0.0591 0.32162 0.22754 0.8041 0.43266 1.3851 0.6059 5.9759 0.0387 11.959 0.0708 17.939 0.10345l15.777 0.20689-18.074 0.0295c-4.9347-0.0469-9.8624-0.0889-14.797-0.133 0.40942 0.087 0.84328 0.16367 1.3176 0.22167h0.03373l12.703-0.0296 20.811-0.0591c15.962 0.19808 31.956 0.37171 47.973 0.51723 3.9252 0.0357 8.1952 0.068 12.601 0.10344l-20.845 0.0295c27.228 0.18273 58.004 0.39441 90.27 0.62069h0.74325c4.5106-0.0163 9.0011-0.019 13.514-0.0296h11.689c21.808 0.10049 59.027 0.22327 79.73 0.31034l37.061 0.16256 9.5608 0.0739c3.2928 7e-3 6.6059 8e-3 9.8986 0.0147l67.568 0.29557c5.6587 0.0274 11.3 0.0485 16.959 0.0739l-20.574 0.0147c-5.1493 0-10.29-8e-3 -15.439 0-12.921 0.0201-25.835 0.0673-38.75 0.11823 42.843 0.0628 75.712 0.0108 104.22-0.13301h-23.581l-22.5-0.10344c-19.983-0.0808-39.954-0.16136-59.932-0.25123h12.095c5.5686 2e-3 11.121-5e-3 16.689 0 14.784 0.0149 29.545 0.0798 44.324 0.11822 12.314 0.0249 24.61 0.0592 36.926 0.0739 3.8286 5e-3 7.6588 5e-3 11.486 0.0147 1.9481 5e-3 3.8964 7e-3 5.8446 0.0147 26.945-0.18423 51.923-0.43766 80.169-0.72414-19.026 0.0292-38.069 0.0699-57.095 0.0739-23.783-0.01-47.535 0.0568-71.318 0.0739-9.9309 0.0102-19.866 0.0443-29.797 0.0443-19.965 0-39.905-0.12013-59.797-0.29556l-13.649-0.0887c18.691-0.0221 37.391-0.0216 56.081 0.0295 5.114 3e-3 30.255 0.0181 35.473 0.0147 24.772-0.0162 49.551-0.0857 74.324-0.0147 28.936-0.0109 57.89-0.0346 86.824-0.0591 3.8183-0.0374 7.7591-0.0655 11.757-0.10345-31.927-0.0391-63.881-0.0478-95.811-0.0591-24.584 0.0721-49.134-0.0136-73.716-0.0295l-31.858 0.0147h-4.054c-1.7927 5e-3 -3.5789 0.0105-5.3716 0.0147-5.2792-0.0227-2.1254-0.0174 1.9595-0.0147-3.4563-4e-3 -5.4881-0.0115-17.027-0.0295-34.933 0.011-69.85-0.15494-104.76-0.25123-30.504 0.0102-60.985-0.0664-91.453-0.22167l-10.946-0.0591c-3.3107-0.0164-6.6325-0.0113-9.9324-0.0443-7.272-0.0728-11.77-0.20059-18.885-0.35467-6.8789-0.14894-8.6246-0.18096-10.608-0.22168l32.568-0.11822c31.934-0.1038 38.592-0.11894 70.676-0.19212 61.37-0.12245 122.78-0.1449 184.16-0.16256 16.956 0.11835 33.934 0.10219 50.912 0.133 8.4114 0.0154 19.431 0.0683 27.905 0.0591l13.446-0.0443c17.229-0.13218 34.496-0.25442 51.655-0.47291 7.2017-0.0917 14.37-0.2188 21.554-0.32511 1.035-0.0154 0.41826-1e-3 1.3514-0.0147h37.905c27.391 0.0719 54.767 0.07 82.162 0.0887 0.0424-0.0659 0.0489-0.13881 0.0675-0.20689-27.307 0.0175-54.625 0.0202-81.926 0.0887h-35.946c23.852-0.35191 9.6829-0.14634 41.52-0.63546 25.021-0.41257 49.984-0.8701 75.135-1.1822h1.25v-0.14778l-7.6013 0.0147 7.6013-0.0739v-0.0295c-3.8323 0.0377-7.6811 0.0712-11.52 0.10345-37.847 0.0382-75.698 0.0435-113.55 0.0443h-138.07c-11.43-0.0741-22.884-0.13826-34.324-0.19211-16.934-0.0985-33.867-0.0489-50.811-0.0443-12.393 3e-3 -14.577-9e-3 -14.088-0.0147h-0.0675c1.7833-5e-3 3.7522 4e-3 -13.041 0.0296-5.0086 8e-3 -10.025 0.0116-15.034 0.0147-6.9018-0.0362-13.779-0.0272-20.676-0.0739-5.7131-0.0386-11.417-0.12103-17.128-0.16256-6.8513-0.0498-9.2752-0.0541-15.608-0.0739 1.1544-5e-3 2.2915-9e-3 3.4459-0.0147 1.3589-6e-3 2.7289-9e-3 4.0878-0.0147 10.353 0.0321 20.691 0.043 31.047 0.0591 13.091-0.0328 26.196-0.0471 39.291-0.0591 14.566-7e-3 29.116 1e-3 43.682 0 14.951-0.0263 29.915-0.0405 44.865-0.0739l3.277 0.0147c10.791 0.0628 16.539 0.10853 26.926 0.19212 2.9906 0.0241 5.9918 0.0568 8.9865 0.0739l7.2297 0.0295c13.536-2e-3 27.075-0.0248 40.608 0.0295 10.78 0.0213 21.553 0.0282 32.331 0 13.398-0.0603 26.797-0.0301 40.203-0.0147 12 0.02 24.019 0.0251 36.014-0.0295 16.244-0.0586 32.501-0.058 48.75-0.0147 10.599 0.0274 21.198 0.0563 31.791 0.10345l1.3851 0.0147v-0.87191c-2.1468-0.0177-4.301-0.0343-6.4527-0.0443-3.403-0.0159-12.715-0.025-16.081-0.0295-15.976 0-31.969-1e-3 -47.939-0.0591-7.1407-0.0315-14.274-0.0336-21.419-0.0295 2.4186-8e-3 4.8448-8e-3 7.2635-0.0147 14.209-0.0159 28.392 4e-3 42.601-0.0295 13.279-0.0769 26.57-0.12199 39.865-0.14778h2.1622v-0.87191h-10.27zm-550.3 1.3152c9.7543 0.019 19.476 0.0605 29.223 0.10345-14.078-0.0208-28.185-0.017-42.264-0.0295-11.929 0-23.852 0.0199-35.777 0.0443l-2.5338-0.0443c17.112-0.0379 34.235-0.0573 51.351-0.0739zm37.804 0.76847 3.5135 0.0147c8.0683 0.0325 13.362 0.0447 20.304 0.0887-15.818 6e-3 -31.648 0.0125-47.466 0.0147-4.3674-5e-3 -8.7434 3e-3 -13.108-0.0147-2.4186-0.01-4.8474-0.0129-7.2635-0.0295 13.757-7e-3 27.531-0.0155 41.284-0.0591l2.7365-0.0147zm263.65 0.26601h167.26c22.828 0 45.653 7e-3 68.48 0.0295-11.521 0.0829-23.071 0.14732-34.595 0.20689-34.692 0.13951-69.376 0.15725-104.09 0.17734-7.5359 4e-3 -15.1 0.0261-22.635 0.0147-6.7604-0.0102-13.513-0.0491-20.27-0.0739-18.065-0.10834-36.096-0.23558-54.155-0.35467zm-397.3 3.1034c1.5641 7e-3 3.131 9e-3 4.696 0.0147 8.3166 0.0297 16.655 0.068 24.966 0.11823l-10.608 0.0295c-1.6644 5e-3 -3.3353 0.0112-5 0.0147l-14.054-0.17734zm31.791 0.133c10.958 0.0713 21.893 0.18389 32.736 0.38424 15.835 0.29244 4.8787 0.0914 15.541 0.31033h-2.5c-5.3844-0.0426-10.552-0.0902-15.27-0.133-15.497-0.14075-30.972-0.31209-46.419-0.50246h2.8378l13.074-0.0591zm188.04 1.0197 35.811 0.0591h-22.095l-13.716-0.0591zm10.811 0.28078h5c3.1093 6e-3 6.2201 0.0106 9.3243 0.0295 7.7582 0.0475 19.291 0.2176 27.196 0.31034l7.6351 0.0887-29.797-0.13301c-18.502-0.0778-49.928-0.18678-72.061-0.28078 17.57 0.0141 35.134 0.027 52.703-0.0147z" fill="#c8ab37"/>
 </g>
</svg>
