<?xml version="1.0" encoding="UTF-8"?>
<svg viewBox="0 0 123.55 123.54" xmlns="http://www.w3.org/2000/svg">
 <path d="m107.96 123.19c8.156 0 14.773-6.594 14.773-14.742v-94.015c0-8.156-6.617-14.766-14.773-14.766h-94.016c-8.148 0-14.765 6.609-14.765 14.766v94.016c0 8.148 6.617 14.742 14.766 14.742h94.015v-9.99e-4z"/>
 <path d="m13.945 2.168c-6.758 0-12.266 5.5-12.266 12.266v94.016c0 6.758 5.508 12.258 12.266 12.258h94.016c6.766 0 12.281-5.5 12.281-12.258v-94.016c0-6.766-5.516-12.266-12.281-12.266h-94.016z" fill="#bf0000"/>
 <g fill="#fff">
  <path d="m61.18 41.035c7.5 0 13.555-6.094 13.555-13.586 0-7.5-6.055-13.562-13.555-13.562s-13.562 6.062-13.562 13.562c-9.99e-4 7.492 6.062 13.586 13.562 13.586z"/>
  <path d="m74.367 44.34c6.203 0.219 8.812 5.188 8.812 5.188l20.023 27.477c0.828 1.219 1.312 2.711 1.312 4.32 0 4.273-3.461 7.742-7.734 7.742-1.023 0-1.953-0.227-2.836-0.562l-12.086-3.375v12.062h-41.96v-12.063l-12.086 3.375c-0.852 0.336-1.812 0.562-2.844 0.562-4.273 0-7.727-3.469-7.727-7.742 0-1.609 0.477-3.102 1.344-4.32l20.008-27.477s2.625-4.969 8.805-5.188h26.969v9.99e-4zm-13.484 44.43l15.656-5.203-0.344-0.07c-10.812-3.172-6.609-17.453 4.18-14.266l1.484 0.516v-16.118l-20.976 6.851-20.984-6.852v16.117l1.477-0.516c10.805-3.188 15.016 11.094 4.203 14.266l-0.352 0.07 15.656 5.205z"/>
  <path d="m103.98 106.69c1.07 0 1.93-0.859 1.93-1.93 0-1.078-0.859-1.93-1.93-1.93h-84.68c-1.047 0-1.93 0.852-1.93 1.93 0 1.07 0.883 1.93 1.93 1.93h84.68z"/>
 </g>
</svg>
